<svg width="20" height="20" viewBox="0 0 20 20" fill="none" xmlns="http://www.w3.org/2000/svg">
<path d="M14.4252 11.451L18.097 7.24784L14.4252 3.04464C14.1284 2.7046 14.163 2.18823 14.5031 1.89124C14.8431 1.59452 15.3592 1.6294 15.6565 1.96917L19.7981 6.71022C20.0673 7.01811 20.0673 7.4778 19.7981 7.78569L15.6564 12.5268C15.4946 12.7115 15.2682 12.8064 15.0404 12.8064C14.8496 12.8064 14.6581 12.7399 14.5031 12.6044C14.163 12.3075 14.1282 11.7911 14.4252 11.451Z" fill="white"/>
<path d="M5.94023 6.43042H19.1826C19.6341 6.43042 20 6.79632 20 7.24784C20 7.69933 19.6341 8.06526 19.1826 8.06526H5.94023C3.56617 8.06526 1.63484 9.99655 1.63484 12.3704C1.63484 14.7442 3.56617 16.6755 5.94023 16.6755H18.0927C18.5441 16.6755 18.9101 17.0414 18.9101 17.4929C18.9101 17.9444 18.5441 18.3103 18.0927 18.3103H5.94023C2.66508 18.3103 0 15.6455 0 12.3704C0 9.09522 2.66481 6.43042 5.94023 6.43042Z" fill="white"/>
</svg>
