<svg width="29" height="28" viewBox="0 0 29 28" fill="none" xmlns="http://www.w3.org/2000/svg">
<g clip-path="url(#clip0)">
<path d="M23.272 7.81906C22.9725 6.03991 22.0916 4.41622 20.7443 3.18406C19.2473 1.81372 17.3012 1.05945 15.2744 1.05945C13.7083 1.05945 12.1825 1.50855 10.8755 2.35494C9.78727 3.05739 8.8833 4.00742 8.24419 5.12443C7.96782 5.07261 7.67993 5.04382 7.39204 5.04382C4.94499 5.04382 2.95281 7.03601 2.95281 9.48306C2.95281 9.79973 2.98735 10.1049 3.04493 10.4043C1.46155 11.5559 0.5 13.4099 0.5 15.3848C0.5 16.9797 1.09305 18.5285 2.17551 19.7549C3.28676 21.0101 4.75499 21.7528 6.3211 21.8392C6.33837 21.8392 6.34989 21.8392 6.36716 21.8392H11.3188C11.7507 21.8392 12.0961 21.4937 12.0961 21.0619C12.0961 20.6301 11.7507 20.2846 11.3188 20.2846H6.39019C4.03527 20.1407 2.0546 17.9009 2.0546 15.379C2.0546 13.7496 2.92978 12.2295 4.34043 11.4061C4.66862 11.2161 4.80681 10.8189 4.68014 10.4619C4.56498 10.151 4.5074 9.82276 4.5074 9.47154C4.5074 7.8824 5.8029 6.5869 7.39204 6.5869C7.73175 6.5869 8.0657 6.64448 8.37662 6.75963C8.75663 6.89782 9.17695 6.72509 9.34968 6.36235C10.4264 4.07652 12.7525 2.60253 15.2802 2.60253C18.6773 2.60253 21.4813 5.14746 21.8037 8.52151C21.8383 8.87273 22.1031 9.15486 22.4486 9.21244C25.0108 9.65003 26.9454 12.0165 26.9454 14.7169C26.9454 17.5785 24.6941 20.0658 21.9189 20.2789H17.6754C17.2436 20.2789 16.8981 20.6243 16.8981 21.0562C16.8981 21.488 17.2436 21.8335 17.6754 21.8335H21.9477C21.9649 21.8335 21.9822 21.8335 22.0052 21.8335C23.7614 21.7068 25.4023 20.9007 26.623 19.5534C27.8379 18.2176 28.5 16.5018 28.5 14.7169C28.4942 11.4868 26.289 8.61363 23.272 7.81906Z" fill="white"/>
<path d="M19.1667 16.1218C19.4718 15.8166 19.4718 15.3272 19.1667 15.022L15.0499 10.9052C14.9059 10.7613 14.7044 10.6749 14.5029 10.6749C14.3014 10.6749 14.0998 10.7555 13.9559 10.9052L9.8391 15.022C9.53394 15.3272 9.53394 15.8166 9.8391 16.1218C9.9888 16.2715 10.1903 16.3521 10.3861 16.3521C10.5819 16.3521 10.7834 16.2772 10.9331 16.1218L13.7256 13.3293V26.1633C13.7256 26.5951 14.0711 26.9406 14.5029 26.9406C14.9347 26.9406 15.2802 26.5951 15.2802 26.1633V13.3293L18.0727 16.1218C18.3721 16.4269 18.8615 16.4269 19.1667 16.1218Z" fill="white"/>
</g>
<defs>
<clipPath id="clip0">
<rect width="28" height="28" fill="white" transform="translate(0.5)"/>
</clipPath>
</defs>
</svg>
