<svg width="20" height="20" viewBox="0 0 20 20" fill="none" xmlns="http://www.w3.org/2000/svg">
<path d="M5.57484 11.451L1.90297 7.24784L5.57484 3.04464C5.87156 2.7046 5.83695 2.18823 5.49691 1.89124C5.15687 1.59452 4.64078 1.6294 4.34352 1.96917L0.201914 6.71022C-0.0673047 7.01811 -0.0673047 7.4778 0.201914 7.78569L4.34355 12.5268C4.50539 12.7115 4.73184 12.8064 4.95961 12.8064C5.15035 12.8064 5.34187 12.7399 5.49691 12.6044C5.83699 12.3075 5.87184 11.7911 5.57484 11.451Z" fill="white"/>
<path d="M14.0598 6.43042H0.817422C0.365938 6.43042 0 6.79632 0 7.24784C0 7.69933 0.365938 8.06526 0.817422 8.06526H14.0598C16.4338 8.06526 18.3652 9.99655 18.3652 12.3704C18.3652 14.7442 16.4338 16.6755 14.0598 16.6755H1.90734C1.45586 16.6755 1.08992 17.0414 1.08992 17.4929C1.08992 17.9444 1.45586 18.3103 1.90734 18.3103H14.0598C17.3349 18.3103 20 15.6455 20 12.3704C20 9.09522 17.3352 6.43042 14.0598 6.43042Z" fill="white"/>
</svg>
