<svg width="20" height="20" viewBox="0 0 20 20" fill="none" xmlns="http://www.w3.org/2000/svg">
<g clip-path="url(#clip0)">
<path d="M19.2187 9.21875H2.6735L5.41428 6.49125C5.7201 6.18687 5.72127 5.69222 5.4169 5.3864C5.11252 5.08054 4.61784 5.07941 4.31202 5.38375L0.229828 9.44625C0.229555 9.44648 0.229359 9.44676 0.229125 9.44699C-0.0759141 9.75137 -0.0768907 10.2476 0.229047 10.553C0.22932 10.5532 0.229516 10.5535 0.22975 10.5537L4.31194 14.6162C4.61772 14.9205 5.11241 14.9195 5.41682 14.6136C5.7212 14.3078 5.72002 13.8131 5.4142 13.5087L2.6735 10.7812H19.2187C19.6502 10.7812 20 10.4315 20 10C20 9.56851 19.6502 9.21875 19.2187 9.21875Z" fill="white"/>
</g>
<defs>
<clipPath id="clip0">
<rect width="20" height="20" fill="white"/>
</clipPath>
</defs>
</svg>
