<svg width="20" height="20" viewBox="0 0 20 20" fill="none" xmlns="http://www.w3.org/2000/svg">
<g clip-path="url(#clip0)">
<path d="M19.1656 2.49846H15V1.66721C15.0004 1.55752 14.9791 1.44883 14.9373 1.34742C14.8955 1.246 14.8341 1.15385 14.7565 1.07629C14.679 0.998731 14.5868 0.937287 14.4854 0.895502C14.384 0.853717 14.2753 0.832417 14.1656 0.832831H5.83437C5.72469 0.832417 5.616 0.853717 5.51459 0.895502C5.41317 0.937287 5.32102 0.998731 5.24346 1.07629C5.1659 1.15385 5.10446 1.246 5.06267 1.34742C5.02089 1.44883 4.99959 1.55752 5 1.66721V2.49846H0.834375C0.613085 2.49846 0.400858 2.58636 0.244383 2.74284C0.0879071 2.89931 0 3.11154 0 3.33283C0 3.55412 0.0879071 3.76635 0.244383 3.92282C0.400858 4.0793 0.613085 4.16721 0.834375 4.16721H2.5V16.6672C2.5 17.3302 2.76339 17.9661 3.23223 18.435C3.70107 18.9038 4.33696 19.1672 5 19.1672H15C15.663 19.1672 16.2989 18.9038 16.7678 18.435C17.2366 17.9661 17.5 17.3302 17.5 16.6672V4.16721H19.1656C19.3869 4.16721 19.5991 4.0793 19.7556 3.92282C19.9121 3.76635 20 3.55412 20 3.33283C20 3.11154 19.9121 2.89931 19.7556 2.74284C19.5991 2.58636 19.3869 2.49846 19.1656 2.49846ZM15.8344 16.6672C15.8335 16.888 15.7453 17.0994 15.5889 17.2552C15.4325 17.411 15.2207 17.4985 15 17.4985H5C4.77925 17.4985 4.5675 17.411 4.41111 17.2552C4.25472 17.0994 4.16645 16.888 4.16563 16.6672V4.16721H15.8344V16.6672Z" fill="white"/>
<path d="M7.50002 14.9984C7.72077 14.9984 7.93253 14.911 8.08891 14.7552C8.2453 14.5994 8.33357 14.3879 8.3344 14.1672V7.49844C8.3344 7.27715 8.24649 7.06492 8.09002 6.90845C7.93354 6.75197 7.72131 6.66406 7.50002 6.66406C7.27873 6.66406 7.06651 6.75197 6.91003 6.90845C6.75356 7.06492 6.66565 7.27715 6.66565 7.49844V14.1672C6.66648 14.3879 6.75475 14.5994 6.91113 14.7552C7.06752 14.911 7.27927 14.9984 7.50002 14.9984Z" fill="white"/>
<path d="M12.5 14.9984C12.7208 14.9984 12.9325 14.911 13.0889 14.7552C13.2453 14.5994 13.3336 14.3879 13.3344 14.1672V7.49844C13.3344 7.27715 13.2465 7.06492 13.09 6.90845C12.9335 6.75197 12.7213 6.66406 12.5 6.66406C12.2787 6.66406 12.0665 6.75197 11.91 6.90845C11.7536 7.06492 11.6656 7.27715 11.6656 7.49844V14.1672C11.6665 14.3879 11.7547 14.5994 11.9111 14.7552C12.0675 14.911 12.2793 14.9984 12.5 14.9984Z" fill="white"/>
</g>
<defs>
<clipPath id="clip0">
<rect width="20" height="18.3344" fill="white" transform="translate(0 0.832825)"/>
</clipPath>
</defs>
</svg>
