<svg width="14" height="12" viewBox="0 0 14 12" fill="none" xmlns="http://www.w3.org/2000/svg">
<path d="M6.99844 10.8096C4.79523 10.8096 2.94003 9.32994 2.36856 7.31168H3.79045C3.92555 7.18051 3.99638 7.003 3.86127 6.87181L2.21902 5.21295C2.08392 5.08178 1.86486 5.08178 1.72976 5.21295L0.09846 6.87181C-0.0952497 7.09917 0.0341798 7.18049 0.169283 7.31168H1.47268C2.066 9.81703 4.30902 11.684 6.99844 11.684C9.04427 11.684 10.833 10.6014 11.8356 8.98233L11.0122 8.65354C10.15 9.95213 8.67524 10.8096 6.99844 10.8096ZM13.8564 5.12549H12.6134C12.1915 2.40239 9.84219 0.315918 6.99844 0.315918C4.80528 0.315918 2.90549 1.55723 1.95581 3.37263L2.77082 3.69838C3.58716 2.20434 5.1743 1.1904 6.99844 1.1904C9.35775 1.1904 11.3174 2.88731 11.7293 5.12549H10.2357C10.1006 5.25666 9.9712 5.33801 10.1649 5.56537L11.7962 7.22425C11.9313 7.3554 12.1503 7.3554 12.2855 7.22425L13.9277 5.56537C14.0624 5.4342 13.9915 5.25668 13.8564 5.12549Z" fill="white"/>
</svg>
