<svg width="20" height="20" viewBox="0 0 20 20" fill="none" xmlns="http://www.w3.org/2000/svg">
<g clip-path="url(#clip0)">
<path d="M16.04 0H7.63755C6.41703 0 5.42401 0.993018 5.42401 2.21354V2.48521H3.96C2.73948 2.48521 1.74646 3.47823 1.74646 4.69875V17.7866C1.74646 19.0071 2.73948 20.0001 3.96 20.0001H12.3625C13.583 20.0001 14.5759 19.0071 14.5759 17.7866V17.5149H16.0399C17.2605 17.5149 18.2535 16.5219 18.2535 15.3013V2.21354C18.2536 0.993018 17.2606 0 16.04 0ZM13.1482 17.7866C13.1482 18.2198 12.7957 18.5723 12.3626 18.5723H3.96C3.52679 18.5723 3.1743 18.2198 3.1743 17.7866V4.69865C3.1743 4.26545 3.52679 3.91296 3.96 3.91296H12.3625C12.7957 3.91296 13.1481 4.26545 13.1481 4.69865V17.7866H13.1482ZM16.8257 15.3013C16.8257 15.7346 16.4732 16.087 16.04 16.087H14.576V4.69865C14.576 3.47813 13.583 2.48511 12.3626 2.48511H6.85186V2.21344C6.85186 1.78024 7.20435 1.42775 7.63755 1.42775H16.04C16.4732 1.42775 16.8257 1.78024 16.8257 2.21344V15.3013Z" fill="white"/>
</g>
<defs>
<clipPath id="clip0">
<rect width="20" height="20" fill="white"/>
</clipPath>
</defs>
</svg>
