<svg width="29" height="28" viewBox="0 0 29 28" fill="none" xmlns="http://www.w3.org/2000/svg">
<g clip-path="url(#clip0)">
<path d="M14.9461 0H14.5C6.78042 0 0.5 6.28042 0.5 14C0.5 21.7196 6.78042 28 14.5 28C22.2196 28 28.5 21.7196 28.5 14V13.5539L14.9461 0ZM24.8891 12.989C21.8097 12.8926 19.4826 12.0751 17.9538 10.5463C16.425 9.01748 15.6075 6.69025 15.5111 3.61107L24.8891 12.989ZM14.5 25.8461C7.96802 25.8461 2.65387 20.5319 2.65387 14C2.65387 7.85241 7.36131 2.78441 13.3606 2.20916C13.2224 6.57699 14.2524 9.89078 16.4308 12.0693C18.4805 14.119 21.5339 15.1528 25.5262 15.1526C25.777 15.1526 26.0327 15.1474 26.291 15.1391C25.7157 21.1386 20.6476 25.8461 14.5 25.8461Z" fill="white"/>
</g>
<defs>
<clipPath id="clip0">
<rect width="28" height="28" fill="white" transform="translate(0.5)"/>
</clipPath>
</defs>
</svg>
