<svg width="20" height="20" viewBox="0 0 20 20" fill="none" xmlns="http://www.w3.org/2000/svg">
<g clip-path="url(#clip0)">
<path d="M12.7779 2.56L10.3819 0.163942C10.2733 0.0553264 10.1284 -0.000282334 9.97864 4.28632e-05C9.82612 -0.00142052 9.67799 0.0553264 9.56937 0.163942L7.22275 2.51057C7.00292 2.7304 7.00292 3.08779 7.22275 3.30746L7.52535 3.61006C7.73754 3.82225 8.10794 3.82225 8.32029 3.61006L9.21865 2.70975V6.01814C9.21865 6.02823 9.2245 6.03652 9.22629 6.04595C9.25068 6.33424 9.49247 6.56236 9.78726 6.56236H10.2149C10.5256 6.56236 10.7811 6.31001 10.7811 5.99928V5.62986C10.7811 5.62823 10.7811 5.6271 10.7811 5.62579V2.75885L11.6797 3.65933C11.8996 3.87916 12.2562 3.87916 12.4758 3.65933L12.7779 3.35705C12.9978 3.13706 12.9978 2.7795 12.7779 2.56Z" fill="white"/>
<path d="M12.7776 16.6435L12.4752 16.3404C12.263 16.1279 11.8924 16.1279 11.6799 16.3404L10.7812 17.2409V14.3866C10.7812 14.385 10.7812 14.384 10.7812 14.3825V14.0131C10.7812 13.7022 10.5256 13.4375 10.2152 13.4375H9.78725C9.49278 13.4375 9.251 13.6715 9.22645 13.9601C9.22466 13.9697 9.2188 13.9843 9.2188 13.9943V17.2903L8.32044 16.39C8.10809 16.1776 7.73688 16.1776 7.52452 16.39L7.22209 16.6926C7.00258 16.9123 7.00291 17.2698 7.22274 17.4896L9.56953 19.8361C9.67538 19.9423 9.81668 20 9.96253 20H9.98367C10.1347 20 10.2757 19.9425 10.3817 19.8361L12.7776 17.4402C12.9974 17.2205 12.9974 16.8632 12.7776 16.6435Z" fill="white"/>
<path d="M5.9857 9.21857H5.93757H5.61449C5.61335 9.21857 5.61221 9.21857 5.61091 9.21857H2.77031L3.67078 8.32297C3.77696 8.21696 3.83533 8.07778 3.83533 7.92705C3.83533 7.77616 3.77696 7.63583 3.67078 7.52998L3.36819 7.22804C3.14835 7.0082 2.7908 7.00853 2.57129 7.22836L0.175237 9.62425C0.0666209 9.73271 0.00857323 9.87823 0.0115 10.0275C0.00841063 10.1828 0.0666209 10.3281 0.175237 10.4368L2.52186 12.7835C2.63178 12.8935 2.776 12.9484 2.92039 12.9484C3.06478 12.9484 3.209 12.8935 3.31892 12.7835L3.62135 12.4811C3.72753 12.3751 3.78607 12.2335 3.78607 12.0827C3.78607 11.9319 3.72769 11.7888 3.62135 11.6829L2.72121 10.7811H6.00277C6.01269 10.7811 6.02895 10.7787 6.03838 10.7769C6.32683 10.7525 6.56244 10.514 6.56244 10.2194V9.79108C6.56244 9.48068 6.29643 9.21857 5.9857 9.21857Z" fill="white"/>
<path d="M19.8246 9.62442L17.4286 7.22869C17.2089 7.00885 16.8513 7.00885 16.6317 7.22869L16.3294 7.53128C16.2232 7.63714 16.1647 7.77876 16.1647 7.92949C16.1647 8.08038 16.2231 8.21696 16.3294 8.32298L17.2297 9.21857H14.3709C14.3694 9.21857 14.3683 9.21857 14.367 9.21857H13.9977C13.687 9.21857 13.4376 9.48052 13.4376 9.79108V10.2194C13.4376 10.514 13.6638 10.7522 13.9524 10.7768C13.962 10.7787 13.969 10.7811 13.9787 10.7811H17.279L16.3784 11.6828C16.2723 11.7886 16.2138 11.9314 16.2138 12.0818C16.2138 12.2328 16.2722 12.3748 16.3784 12.4808L16.6811 12.7834C16.7909 12.8933 16.9351 12.9484 17.0795 12.9484C17.2239 12.9484 17.3679 12.8935 17.4778 12.7835L19.8248 10.4368C19.9331 10.3285 19.9911 10.1829 19.9885 10.0335C19.991 9.87823 19.9329 9.73271 19.8246 9.62442Z" fill="white"/>
<path d="M10.0003 8.43648C9.13832 8.43648 8.43703 9.13777 8.43703 9.99986C8.43703 10.8618 9.13832 11.5633 10.0003 11.5633C10.8622 11.5633 11.5636 10.8618 11.5636 9.99986C11.5636 9.13777 10.8622 8.43648 10.0003 8.43648Z" fill="white"/>
</g>
<defs>
<clipPath id="clip0">
<rect width="20" height="20" fill="white"/>
</clipPath>
</defs>
</svg>
