<svg width="28" height="28" viewBox="0 0 28 28" fill="none" xmlns="http://www.w3.org/2000/svg">
<g clip-path="url(#clip0)">
<path d="M10.5 25.685C10.017 25.685 9.625 25.293 9.625 24.81V3.22656C9.625 2.74356 10.017 2.35156 10.5 2.35156C10.983 2.35156 11.375 2.74356 11.375 3.22656V24.81C11.375 25.293 10.983 25.685 10.5 25.685Z" fill="white"/>
<path d="M20.125 7.01816C19.642 7.01816 19.25 6.62616 19.25 6.14316V4.10156H1.75V6.14316C1.75 6.62616 1.358 7.01816 0.875 7.01816C0.391998 7.01816 0 6.62616 0 6.14316V3.22656C0 2.74356 0.391998 2.35156 0.875 2.35156H20.125C20.608 2.35156 21 2.74356 21 3.22656V6.14316C21 6.62616 20.608 7.01816 20.125 7.01816Z" fill="white"/>
<path d="M13.125 25.685H7.875C7.392 25.685 7 25.293 7 24.81C7 24.327 7.392 23.935 7.875 23.935H13.125C13.608 23.935 14 24.327 14 24.81C14 25.293 13.608 25.685 13.125 25.685Z" fill="white"/>
<path d="M17.2084 16.6432C16.7254 16.6432 16.3334 16.2512 16.3334 15.7682V13.7266C16.3334 13.2436 16.7254 12.8516 17.2084 12.8516H27.125C27.608 12.8516 28 13.2436 28 13.7266V15.4766C28 15.9596 27.608 16.3516 27.125 16.3516C26.642 16.3516 26.25 15.9596 26.25 15.4766V14.6016H18.0834V15.7682C18.0834 16.2512 17.6914 16.6432 17.2084 16.6432Z" fill="white"/>
<path d="M22.1666 25.685C21.6836 25.685 21.2916 25.293 21.2916 24.81V13.7266C21.2916 13.2436 21.6836 12.8516 22.1666 12.8516C22.6496 12.8516 23.0416 13.2436 23.0416 13.7266V24.81C23.0416 25.293 22.6496 25.685 22.1666 25.685Z" fill="white"/>
<path d="M23.625 25.685H20.7084C20.2254 25.685 19.8334 25.293 19.8334 24.81C19.8334 24.327 20.2254 23.935 20.7084 23.935H23.625C24.108 23.935 24.5 24.327 24.5 24.81C24.5 25.293 24.108 25.685 23.625 25.685Z" fill="white"/>
</g>
<defs>
<clipPath id="clip0">
<rect width="28" height="28" fill="white"/>
</clipPath>
</defs>
</svg>
