<svg width="20" height="20" viewBox="0 0 20 20" fill="none" xmlns="http://www.w3.org/2000/svg">
<path d="M9.96094 15.4277H3.125C1.40188 15.4277 0 14.0258 0 12.3027V7.69328C0 5.97016 1.40188 4.56828 3.125 4.56828H9.96094C10.3924 4.56828 10.7422 4.91805 10.7422 5.34953C10.7422 5.78102 10.3924 6.13078 9.96094 6.13078H3.125C2.26344 6.13078 1.5625 6.83172 1.5625 7.69328V12.3027C1.5625 13.1642 2.26344 13.8652 3.125 13.8652H9.96094C10.3924 13.8652 10.7422 14.2149 10.7422 14.6464C10.7422 15.0779 10.3924 15.4277 9.96094 15.4277ZM16.875 4.56828H16.1719C15.7404 4.56828 15.3906 4.91805 15.3906 5.34953C15.3906 5.78102 15.7404 6.13078 16.1719 6.13078H16.875C17.7366 6.13078 18.4375 6.83172 18.4375 7.69328V12.3027C18.4375 13.1642 17.7366 13.8652 16.875 13.8652H16.1719C15.7404 13.8652 15.3906 14.2149 15.3906 14.6464C15.3906 15.0779 15.7404 15.4277 16.1719 15.4277H16.875C18.5981 15.4277 20 14.0258 20 12.3027V7.69328C20 5.97012 18.5981 4.56828 16.875 4.56828ZM16.1719 18.4375C14.8795 18.4375 13.8281 17.3861 13.8281 16.0938V3.90625C13.8281 2.61391 14.8795 1.5625 16.1719 1.5625C16.6034 1.5625 16.9531 1.21273 16.9531 0.78125C16.9531 0.349766 16.6034 0 16.1719 0C14.8955 0 13.7602 0.61543 13.0469 1.56508C12.3336 0.61543 11.1983 0 9.92188 0C9.49039 0 9.14062 0.349766 9.14062 0.78125C9.14062 1.21273 9.49039 1.5625 9.92188 1.5625C11.2142 1.5625 12.2656 2.61391 12.2656 3.90625V16.0938C12.2656 17.3861 11.2142 18.4375 9.92188 18.4375C9.49039 18.4375 9.14062 18.7873 9.14062 19.2188C9.14062 19.6502 9.49039 20 9.92188 20C11.1983 20 12.3336 19.3846 13.0469 18.4349C13.7602 19.3846 14.8955 20 16.1719 20C16.6034 20 16.9531 19.6502 16.9531 19.2188C16.9531 18.7873 16.6034 18.4375 16.1719 18.4375Z" fill="white"/>
</svg>
