<svg width="20" height="20" viewBox="0 0 20 20" fill="none" xmlns="http://www.w3.org/2000/svg">
<path d="M17.2215 15.2009C16.69 14.2741 15.8653 13.6464 14.9947 13.4101C14.3068 13.2223 13.5934 13.2799 12.9761 13.6287L11.1402 10.4189C12.2764 8.15224 14.8272 3.07043 15.2847 2.26928C15.8777 1.23315 14.8167 0 14.8167 0L9.9993 8.42519L5.18323 0C5.18323 0 4.12288 1.23315 4.71523 2.26862C5.17341 3.07043 7.72479 8.15159 8.85975 10.4182L7.02444 13.6281C6.40721 13.2792 5.69245 13.2216 5.00585 13.4095C4.134 13.6458 3.30994 14.2735 2.77846 15.2003C1.82415 16.8674 2.18872 18.867 3.58943 19.6688C4.21058 20.0255 4.92992 20.0825 5.62307 19.8946C6.49295 19.657 7.31898 19.0293 7.8498 18.1045C8.08216 17.696 8.23598 17.2686 8.31453 16.8438V16.8445C8.31518 16.8412 8.31518 16.8379 8.31845 16.8347C8.32303 16.7993 8.32958 16.764 8.33285 16.7254C8.72688 14.0817 9.47174 12.7314 9.99865 12.0755C10.5269 12.7314 11.2724 14.081 11.6657 16.7254C11.6697 16.764 11.6762 16.7993 11.6795 16.8347C11.6821 16.8379 11.6821 16.8412 11.6834 16.8445V16.8438C11.7626 17.268 11.9158 17.696 12.1475 18.1045C12.679 19.0293 13.505 19.657 14.3755 19.8946C15.0687 20.0825 15.788 20.0255 16.4105 19.6688C17.8118 18.867 18.1751 16.868 17.2215 15.2009ZM6.48706 17.3243C6.18597 17.8498 5.70882 18.2458 5.21202 18.3813C4.99079 18.4415 4.66614 18.4782 4.36833 18.3074C3.73343 17.9441 3.62936 16.8766 4.14186 15.9798C4.44818 15.4484 4.91225 15.0615 5.4182 14.9234C5.63747 14.8639 5.96212 14.8279 6.26125 14.9974C6.8968 15.362 7.00022 16.4269 6.48706 17.3243ZM15.6309 18.3074C15.3331 18.4789 15.0098 18.4415 14.7885 18.3813C14.2911 18.2458 13.8146 17.8498 13.5128 17.3243C13.0003 16.4269 13.1038 15.362 13.7393 14.9974C14.0384 14.8272 14.3631 14.8639 14.583 14.9234C15.0877 15.0615 15.553 15.4484 15.8574 15.9798C16.3699 16.8766 16.2665 17.9441 15.6309 18.3074Z" fill="white"/>
</svg>
