<svg width="28" height="28" viewBox="0 0 28 28" fill="none" xmlns="http://www.w3.org/2000/svg">
<path d="M10.8674 16.0388H1.09375C0.489672 16.0388 0 16.5285 0 17.1326V26.9063C0 27.5103 0.489672 28 1.09375 28H10.8674C11.4715 28 11.9611 27.5103 11.9611 26.9063V17.1326C11.9611 16.5285 11.4715 16.0388 10.8674 16.0388ZM9.77364 25.8125H2.1875V18.2263H9.77364V25.8125Z" fill="white"/>
<path d="M16.6529 16.3592C16.2258 15.932 15.5333 15.9321 15.1061 16.3592C14.679 16.7863 14.679 17.4788 15.1061 17.906L24.5038 27.3037C24.931 27.7308 25.6234 27.7309 26.0506 27.3037C26.4778 26.8766 26.4778 26.1841 26.0506 25.7569L16.6529 16.3592Z" fill="white"/>
<path d="M27.8845 11.6313L22.3712 0.604625C22.1859 0.234062 21.8072 0 21.3929 0C20.9787 0 20.6 0.234062 20.4146 0.604625L14.9013 11.6313C14.7317 11.9704 14.7498 12.373 14.9491 12.6955C15.1484 13.0179 15.5005 13.2142 15.8795 13.2142H26.9062C27.2853 13.2142 27.6374 13.0179 27.8366 12.6955C28.0359 12.373 28.054 11.9704 27.8845 11.6313ZM17.6493 11.0267L21.3929 3.53948L25.1366 11.0267H17.6493Z" fill="white"/>
<path d="M6.60707 0C2.96395 0 0 2.9639 0 6.60707C0 10.2502 2.96395 13.2141 6.60707 13.2141C10.2502 13.2141 13.2141 10.2502 13.2141 6.60707C13.2141 2.9639 10.2502 0 6.60707 0ZM6.60707 11.0267C4.17009 11.0267 2.1875 9.04405 2.1875 6.60707C2.1875 4.17009 4.17009 2.1875 6.60707 2.1875C9.04405 2.1875 11.0266 4.17014 11.0266 6.60707C11.0266 9.044 9.04405 11.0267 6.60707 11.0267Z" fill="white"/>
</svg>
