<svg width="28" height="28" viewBox="0 0 28 28" fill="none" xmlns="http://www.w3.org/2000/svg">
<path d="M24.4221 0H3.57793C1.60502 0 0 1.60508 0 3.57798V24.4221C0 26.3949 1.60502 28 3.57793 28H24.4221C26.395 28 28 26.3949 28 24.422V3.57798C28 1.60508 26.395 0 24.4221 0ZM26.3507 24.4221C26.3507 25.4856 25.4855 26.3507 24.4221 26.3507H3.57793C2.51442 26.3507 1.64921 25.4855 1.64921 24.4221V21.4139L7.07722 16.7955C7.2753 16.6269 7.56427 16.6253 7.7642 16.7914L11.1643 19.6148C11.4922 19.8869 11.9734 19.8646 12.2747 19.563L20.3536 11.4718C20.4997 11.3255 20.6699 11.3113 20.7588 11.3158C20.8474 11.3204 21.0155 11.352 21.1459 11.5125L26.3508 17.9213V24.4221H26.3507ZM26.3507 15.3051L22.426 10.4726C22.0368 9.99332 21.4599 9.7003 20.8433 9.66864C20.227 9.63747 19.6228 9.86945 19.1866 10.3064L11.6392 17.8654L8.81792 15.5226C7.99985 14.8433 6.81838 14.8503 6.00846 15.5395L1.64921 19.2485V3.57798C1.64921 2.51448 2.51442 1.64927 3.57793 1.64927H24.4221C25.4856 1.64927 26.3507 2.51448 26.3507 3.57798V15.3051Z" fill="white"/>
<path d="M8.8142 3.44507C6.6215 3.44507 4.83771 5.22897 4.83771 7.42156C4.83771 9.6142 6.62156 11.3981 8.8142 11.3981C11.0068 11.3981 12.7907 9.6142 12.7907 7.42156C12.7907 5.22892 11.0069 3.44507 8.8142 3.44507ZM8.8142 9.74884C7.5309 9.74884 6.48692 8.7048 6.48692 7.42156C6.48692 6.13826 7.5309 5.09428 8.8142 5.09428C10.0975 5.09428 11.1415 6.13832 11.1415 7.42156C11.1415 8.7048 10.0975 9.74884 8.8142 9.74884Z" fill="white"/>
</svg>
